<?xml version="1.0" encoding="UTF-8"?>
<svg width="349.150729px" height="159.206941px" viewBox="0 0 349.150729 159.206941" version="1.1" xmlns="http://www.w3.org/2000/svg" xmlns:xlink="http://www.w3.org/1999/xlink">
    <title>暂无权限</title>
    <defs>
        <linearGradient x1="-9.81853487e-14%" y1="53.7518854%" x2="100%" y2="52.6036131%" id="linearGradient-1">
            <stop stop-color="#F5F7FE" stop-opacity="0.416466346" offset="0%"></stop>
            <stop stop-color="#E7EDFC" stop-opacity="0.454381556" offset="100%"></stop>
        </linearGradient>
        <rect id="path-2" x="0" y="0" width="74" height="70"></rect>
        <linearGradient x1="88.1054888%" y1="-60.3006586%" x2="22.3509417%" y2="119.070643%" id="linearGradient-4">
            <stop stop-color="#FCFDFF" offset="0%"></stop>
            <stop stop-color="#EAF0FF" offset="32.8834624%"></stop>
            <stop stop-color="#DFE8FF" offset="100%"></stop>
        </linearGradient>
        <path d="M16.1215223,16.8864457 C14.4243639,13.827727 12.6474101,12.5483677 10.7906609,13.0483677 C8.005537,13.7983677 8.49181213,30.0114329 11.7790245,33.8799609 C11.8092991,34.6661905 15.0868178,38.504675 15.1035829,39.5700477 C15.1116764,40.0843627 13.4281463,46.2619699 12.7635188,48.8677652 C11.9071158,52.2254523 11.9071158,57.3901352 12.7635188,59.6146367 C13.8150609,62.3460107 -2.10381839,79.1860798 7.43652675,100.473007 C7.78858037,114.043494 11.3522252,125.293813 12.7635188,125.293813 C14.2386154,125.5568 17.972412,126.668471 23.9404514,124.248489 C25.1210789,123.17361 25.417523,120.494522 20.7695226,118.205324 C16.1215223,115.916127 22.4671226,103.542667 25.5398527,100.473007 C27.7710615,103.436582 29.0080417,110.639818 29.9089165,111.42028 C30.8097913,112.200743 31.2153726,115.319523 33.4827391,118.205324 C35.0648132,121.082939 34.702553,126.339138 40.8029867,125.293813 C46.2403001,124.583764 49.0891019,125.293813 49,123.16361 C49.7843547,121.46937 46.6166887,118.074382 44.9942991,117.735981 C44.1375143,116.62824 42.6360185,112.695124 42.2689221,112.057702 C41.9018257,111.42028 45.7025403,97.8535338 40.8029867,90.1652031 C42.2568135,85.5554083 53.1421202,63.3363314 45.1436952,51.1382902 C45.0075498,47.6831021 49.0570179,31.3105773 51.4857201,20.364361 C52.5711022,16.2992017 53.7344806,11.8591591 53.1421202,8.84093494 C55.4030111,5.50083256 53.2978322,1.9434806 52.1205195,1.9434806 C51.5565275,1.9434806 50.8175323,0.234428901 49.0891019,0.00553348965 C48.6378172,-0.0542299772 47.7358484,0.370105045 46.3831955,1.27853856 C42.9488343,2.1472437 42.090244,4.26066288 43.8074246,7.6187961 C42.8141161,11.2041472 41.8126368,15.0519567 40.8029867,19.1622247 C41.3053459,15.7197342 39.2532695,13.748489 34.6467574,13.248489 C30.513738,11.7487808 31.7719453,8.84093494 25.0323707,8.84093494 C23.3837953,9.11711457 23.0198222,11.2041617 23.9404514,15.1020765 C23.3108357,14.8672766 22.2538594,14.8672766 20.7695226,15.1020765 C19.2851858,15.3368763 17.7358524,15.931666 16.1215223,16.8864457 Z" id="path-5"></path>
        <linearGradient x1="27.5496691%" y1="15.7762614%" x2="24.4154732%" y2="51.8882081%" id="linearGradient-7">
            <stop stop-color="#E6EDFF" offset="0%"></stop>
            <stop stop-color="#DAE5FF" offset="60.6139002%"></stop>
            <stop stop-color="#E9EFFF" offset="100%"></stop>
        </linearGradient>
        <linearGradient x1="50%" y1="0%" x2="50%" y2="100%" id="linearGradient-8">
            <stop stop-color="#DFE8FF" offset="0%"></stop>
            <stop stop-color="#DFE8FF" offset="100%"></stop>
        </linearGradient>
        <linearGradient x1="50%" y1="0%" x2="50%" y2="100%" id="linearGradient-9">
            <stop stop-color="#DFE8FF" offset="0%"></stop>
            <stop stop-color="#DFE8FF" offset="100%"></stop>
        </linearGradient>
        <linearGradient x1="61.2401465%" y1="36.8801425%" x2="68.14566%" y2="53.6612269%" id="linearGradient-10">
            <stop stop-color="#EAEEFF" offset="0%"></stop>
            <stop stop-color="#D4E1FF" offset="100%"></stop>
        </linearGradient>
        <linearGradient x1="37.6555564%" y1="-32.4446509%" x2="65.098553%" y2="55.4665304%" id="linearGradient-11">
            <stop stop-color="#EAEEFF" offset="0%"></stop>
            <stop stop-color="#D4E1FF" offset="100%"></stop>
        </linearGradient>
        <linearGradient x1="50%" y1="0%" x2="41.6981008%" y2="242.994742%" id="linearGradient-12">
            <stop stop-color="#D0DDFF" offset="0%"></stop>
            <stop stop-color="#C4D5FF" offset="100%"></stop>
        </linearGradient>
        <linearGradient x1="56.4266819%" y1="38.4609427%" x2="40.9546253%" y2="96.1604056%" id="linearGradient-13">
            <stop stop-color="#E6EDFF" offset="0%"></stop>
            <stop stop-color="#CDDBFF" offset="100%"></stop>
        </linearGradient>
        <linearGradient x1="0.002804338%" y1="49.9981807%" x2="88.4764431%" y2="49.9981807%" id="linearGradient-14">
            <stop stop-color="#B3CFFF" offset="0%"></stop>
            <stop stop-color="#BAD3FF" offset="9%"></stop>
            <stop stop-color="#CBDEFF" offset="36%"></stop>
            <stop stop-color="#D5E4FF" offset="64%"></stop>
            <stop stop-color="#D9E7FF" offset="100%"></stop>
        </linearGradient>
    </defs>
    <g id="页面-1" stroke="none" stroke-width="1" fill="none" fill-rule="evenodd">
        <g id="缺省页-没有数据" transform="translate(-648.424635, -388.459459)">
            <g id="暂无权限" transform="translate(630.000000, 362.000000)">
                <rect id="矩形" x="0" y="0" width="400" height="196"></rect>
                <g id="编组-9" opacity="0.420479911" transform="translate(136.000000, 26.459459)" fill="url(#linearGradient-1)">
                    <path d="M59.1052632,0 C73.5766484,-5.86838162e-15 85.5723158,10.5998079 87.7517968,24.4589552 L88.4594595,24.4594595 C90.9671308,24.4594595 93,26.4923287 93,29 C93,31.5076713 90.9671308,33.5405405 88.4594595,33.5405405 L4.54054054,33.5405405 C2.03286924,33.5405405 3.07101163e-16,31.5076713 0,29 C-3.07101163e-16,26.4923287 2.03286924,24.4594595 4.54054054,24.4594595 L13.7052632,24.4594595 C13.7052632,21.9517882 15.7381324,19.9189189 18.2458037,19.9189189 L26.9030214,19.9184536 C30.7142071,8.35033123 41.6082571,-4.89655716e-16 54.4526316,0 L59.1052632,0 Z" id="形状结合"></path>
                </g>
                <g id="编组" transform="translate(150.022173, 28.000000)">
                    <path d="M181.440503,0 C183.954167,0 186,2.19554527 186,4.9020538 L186,138 L0,138 L0,4.9020538 C0,2.19953717 2.04211997,0 4.55949696,0 L181.440503,0 Z" id="路径" fill="#CEDDFE" fill-rule="nonzero"></path>
                    <path d="M68.2840603,0 C69.2300629,0 70,2.19554527 70,4.9020538 L70,138 L0,138 L0,4.9020538 C0,2.19953717 0.768539774,0 1.71593971,0 L68.2840603,0 Z" id="路径备份-2" fill="#C1D3FF" fill-rule="nonzero"></path>
                    <rect id="矩形" fill="#E2E9FC" x="79.977827" y="10" width="94" height="119"></rect>
                    <rect id="矩形备份" stroke-opacity="0.504479895" stroke="#FFFFFF" stroke-width="4" fill="#B7D1FF" x="7.97782701" y="8" width="54" height="123"></rect>
                    <path d="M19.2775973,16.4999578 L50.4999718,16.5012841 C50.5003844,18.6508441 50.8848141,20.6089377 51.5218258,22.0718373 C52.1341453,23.4780311 52.9624146,24.4472386 53.9558909,24.5036732 L53.9558909,112.496326 C52.9622741,112.552773 52.1339088,113.522232 51.5215694,114.928752 C50.884543,116.391976 50.5001806,118.350478 50.4999718,120.500418 L19.5000296,120.500418 C19.4998048,118.318395 19.1039662,116.333512 18.4498063,114.863724 C17.8221324,113.453446 16.974112,112.492109 15.9568618,112.495841 L15.9559576,30.2570981 L16.5947701,30.4416948 C17.4280523,30.5 17.8298574,30.3061975 18.199322,29.9809934 C18.6449945,29.5887107 19.0406506,29.0101645 19.3760178,28.2975091 C20.0742352,26.8137972 20.5,24.7630427 20.5,22.5 C20.5,20.1330035 20.0335564,17.998567 19.2775973,16.4999578 Z" id="形状结合" stroke-opacity="0.504479895" stroke="#FFFFFF" opacity="0.733351935"></path>
                    <line x1="56.1265989" y1="70.8183593" x2="65.1315759" y2="78.1462753" id="路径-3" stroke="#FCFDFF"></line>
                    <line x1="51.7479861" y1="70.8183593" x2="41.9905061" y2="79.2222698" id="路径-3备份" stroke="#FCFDFF"></line>
                    <circle id="椭圆形" stroke="#EFF3FF" fill="#A8CAFF" transform="translate(54.000000, 68.000000) rotate(-180.000000) translate(-54.000000, -68.000000) " cx="54" cy="68" r="3.5"></circle>
                    <path d="M42,67 L50,67 C50.5522847,67 51,67.4477153 51,68 C51,68.5522847 50.5522847,69 50,69 L42,69 L42,69 L42,67 Z" id="矩形" fill="#EFF3FF" transform="translate(46.500000, 68.000000) rotate(-180.000000) translate(-46.500000, -68.000000) "></path>
                    <rect id="矩形" fill="#F2F5FF" opacity="0.27078683" x="79.977827" y="105" width="94" height="5"></rect>
                    <rect id="矩形备份-3" fill="#F2F5FF" opacity="0.27078683" x="79.977827" y="117" width="94" height="5"></rect>
                    <g id="编组-6" transform="translate(89.977827, 24.000000)">
                        <mask id="mask-3" fill="white">
                            <use xlink:href="#path-2"></use>
                        </mask>
                        <use id="矩形" fill="#F2F5FF" xlink:href="#path-2"></use>
                        <polygon id="矩形" fill="#FFFFFF" opacity="0.340425037" mask="url(#mask-3)" points="34.4047724 -3 47 1.66117597 18.5952276 73 6 68.338824"></polygon>
                        <polygon id="矩形备份-6" fill="#FFFFFF" opacity="0.340425037" mask="url(#mask-3)" points="54.6483768 -3 61 -0.65895361 32.3516232 71 26 68.6589536"></polygon>
                    </g>
                </g>
                <g id="编组-4" transform="translate(187.934843, 93.465749)">
                    <rect id="矩形" stroke="#FCFDFF" stroke-width="2" fill="#F6C666" x="1" y="13" width="31" height="21" rx="1"></rect>
                    <text id="No-Permission" font-family="Alibaba-PuHuiTi-B, Alibaba PuHuiTi" font-size="5" font-weight="bold" letter-spacing="-0.2" fill="#FFFFFF">
                        <tspan x="13.8328361" y="21.0783063">No </tspan>
                        <tspan x="4.65033613" y="28.0783063">Permission</tspan>
                    </text>
                </g>
                <line x1="86" y1="184.5" x2="110" y2="184.5" id="路径备份" stroke="#CCDCFF" stroke-width="2.3328" stroke-linecap="round"></line>
                <g id="编组" transform="translate(20.000000, 164.000000)" stroke="#CCDCFF" stroke-linecap="round" stroke-width="3.15072934">
                    <line x1="42.0389105" y1="0.5" x2="255.657588" y2="0.5" id="路径"></line>
                    <line x1="2.24986696e-13" y1="0.5" x2="23.5" y2="0.5" id="路径"></line>
                    <line x1="331.291829" y1="0.5" x2="346" y2="0.5" id="路径"></line>
                </g>
                <path d="M156.52194,43 L158.087891,41.8725054 C158.620694,41.4888837 159.319382,41.4236388 159.914,41.7019797 C160.526015,41.9884638 161.23194,41.9966587 161.85044,41.7244593 L162.062474,41.6311439 C162.525285,41.4274631 163.065583,41.637529 163.269264,42.1003394 C163.272942,42.1086968 163.276494,42.1171087 163.279921,42.1255724 L163.281333,42.1290614 C163.482195,42.6252181 164.023448,42.8916025 164.539127,42.7481001 C165.078307,42.5980574 165.65262,42.8139518 165.959441,43.2820216 L166.854439,44.6473828 C166.854439,45.7022807 166.538128,46.6531532 165.905505,47.5 C164.956571,48.7702703 163.995598,49.0071652 163.633921,50 C163.268899,51.0020152 163.268447,56.4770703 162.576982,57.736583 C160.478044,61.5598247 156.911876,65.221809 151.878478,68.7225357 L143.878478,68.7225357 C146.317928,61.2105309 148.431346,55.6363524 150.218731,52 C151.012708,50.3846918 150.960707,50.742552 151.878478,49.3783784 C152.064868,49.1013279 153.749999,46.1804888 153.994431,45.8759949 C154.417937,45.3484265 155.26044,44.3897615 156.52194,43 L156.52194,43 Z" id="矩形" fill="url(#linearGradient-4)"></path>
                <g id="编组-13" transform="translate(79.000000, 39.751511)">
                    <g id="编组-11" transform="translate(45.878478, 0.000000)">
                        <g id="编组-12" transform="translate(0.000000, 22.362969)" stroke="#DEEAFF" stroke-linecap="round" stroke-width="0.4536">
                            <path d="M13.9637128,0.306355544 C13.9637128,0.306355544 10.5443885,-0.250432412 4.40608345,0.137237707" id="路径"></path>
                            <path d="M16.0461061,1.90126684 C16.0461061,1.90126684 9.36966949,1.69051999 0,4.02434614" id="路径"></path>
                            <path d="M14.1362239,3.60805608 C14.1362239,3.60805608 10.4156489,3.75115579 6.18526499,6.0355475" id="路径"></path>
                        </g>
                        <mask id="mask-6" fill="white">
                            <use xlink:href="#path-5"></use>
                        </mask>
                        <use id="路径-2" fill="#E6EDFF" xlink:href="#path-5"></use>
                        <ellipse id="椭圆形" fill="#EFF3FF" mask="url(#mask-6)" cx="36" cy="8.5" rx="9" ry="11.5"></ellipse>
                        <ellipse id="椭圆形" fill="url(#linearGradient-7)" mask="url(#mask-6)" cx="49" cy="130.742956" rx="18" ry="23.5"></ellipse>
                        <ellipse id="椭圆形" fill="#D4E1FF" mask="url(#mask-6)" cx="31" cy="116.242956" rx="4" ry="6"></ellipse>
                        <ellipse id="椭圆形备份-6" fill="#D4E1FF" mask="url(#mask-6)" cx="20" cy="113.242956" rx="4" ry="6"></ellipse>
                        <ellipse id="椭圆形备份-5" fill="#D4E1FF" mask="url(#mask-6)" cx="32" cy="121.242956" rx="4" ry="6"></ellipse>
                        <path d="M12.4601541,74.9757054 C13.4488744,75.2072667 14.4659174,75.5142807 15.2100324,76.2089647 C15.9541474,76.9036487 16.342941,78.0926772 15.8460061,78.9877009 C15.5215822,79.5757106 14.8984825,79.9217517 14.2985559,80.2131547 C11.8834006,81.3891741 9.28543508,82.1853289 6.63082413,82.5651936 C5.80946536,82.6822707 4.96235867,82.7603295 4.15902344,82.5547863 C2.7197145,82.1905325 1.61770336,80.959875 1.02035153,79.5887196 C0.420424901,78.2175642 0.719100818,76.3468608 1.55590834,75.1083979 C3.32479071,72.4857705 8.45635194,74.0416546 12.4601541,74.9757054 L12.4601541,74.9757054 Z" id="路径" fill="url(#linearGradient-8)" fill-rule="nonzero" mask="url(#mask-6)"></path>
                        <path d="M11.2394557,46.0504478 C12.9439683,49.9557689 16.4225128,52.9660664 20.4237401,54.33462 C21.7137111,54.7769282 23.0732015,55.0657294 24.2370077,55.781228 C25.4008138,56.4941247 26.3560618,57.7794202 26.1938499,59.145372 C26.0445119,60.4124549 24.9579495,61.4037456 23.7658206,61.814832 C22.5736918,62.2259185 21.2734216,62.1686786 20.0143481,62.093226 C17.2953674,61.9319136 14.5557883,61.7029541 11.9526732,60.8989939 C9.34955808,60.0950337 6.86230864,58.6640366 5.2170163,56.4733102 C4.74067971,55.8384678 4.33643731,55.1385802 4.1356035,54.3684436 C3.71848713,52.7579214 4.2694927,51.0016977 5.2839609,49.690384 C6.2984291,48.3790703 7.72486409,47.4528249 9.20536971,46.7191137" id="路径" fill="url(#linearGradient-9)" fill-rule="nonzero" mask="url(#mask-6)"></path>
                        <path d="M4.47356261,4.36436101 C13.4488767,4.36436101 21.0433353,9.09407729 23.5749836,15.607946 C14.4249986,16.9265287 7.47356261,23.4793547 7.47356261,31.364361 C7.47356261,33.0009502 7.77303019,34.5801492 8.32945612,36.0670785 C7.08241861,36.2621603 5.79290951,36.364361 4.47356261,36.364361 C-6.57213238,36.364361 -15.5264374,29.200917 -15.5264374,20.364361 C-15.5264374,11.527805 -6.57213238,4.36436101 4.47356261,4.36436101 Z" id="形状结合" fill="url(#linearGradient-10)" mask="url(#mask-6)" transform="translate(4.024273, 20.364361) rotate(-4.000000) translate(-4.024273, -20.364361) "></path>
                        <path d="M23.9404514,15.1020765 C23.3561575,21.5403802 23.5809806,24.9666022 24.6149207,25.3807424 C26.0886161,25.9710247 30.1558547,25.3233093 32.61874,24.2593037 C34.3361301,23.517364 39.4410042,20.57988 39.0491594,17.7245145 C38.6234086,14.6220769 35.1388601,12.5095897 35.67283,12.415428 C39.3675163,11.7638967 35.2183689,10.0415837 23.2253879,7.24848902 L22.3264774,12.8762103 L23.9404514,15.1020765 Z" id="路径-4" fill="url(#linearGradient-11)" mask="url(#mask-6)"></path>
                        <path d="M43.3881969,4.10215667 C45.8770805,9.56533301 47.1215223,13.4555158 47.1215223,15.7727051 C47.1215223,18.0898944 47.5783758,19.248489 48.4920829,19.248489 C48.4920829,33.2940606 47.5387117,41.5613801 45.6319693,44.0504478 C42.7718557,47.7840493 39.9117421,52.4305704 42.7718557,57.7593998 C44.6785981,61.3119528 44.0261476,71.3988077 40.8145043,88.0199645 L58.0415223,75.7384744 L60.1436952,3.47821875 L45.2177207,-1.39105738 L41.8227658,4.10215667 L43.3881969,4.10215667 Z" id="路径-6" fill="#DEE7FF" mask="url(#mask-6)"></path>
                        <path d="M51.8362839,60.248489 C48.2856038,67.0525246 45.6474227,71.5226754 43.9217406,73.6589415 C40.2037141,78.2615818 35.7904453,81.6577536 35.7904453,83.248489 C35.7904453,87.2958184 36.6601242,87.326208 35.7904453,91.7873485 C34.9207664,96.248489 43.0658123,106.893967 48.1215223,102.09012 C51.4919956,98.8875553 52.7302494,84.940345 51.8362839,60.248489 Z" id="路径-5" fill="url(#linearGradient-12)" fill-rule="nonzero" mask="url(#mask-6)"></path>
                        <path d="M40.7260907,19.3378125 C40.944733,27.6287019 38.7117118,32.9031718 34.0270271,35.1612222 C38.8451828,34.1460791 41.9206408,30.9821131 43.2534013,25.6693242 L40.7260907,19.3378125 Z" id="路径-7" fill="url(#linearGradient-13)" mask="url(#mask-6)"></path>
                    </g>
                    <path d="M52.7822299,87.9029902 C49.3860787,87.9316102 36.2881099,90.2602327 31.6637827,82.1972146 C27.0059833,74.0743548 32.863636,59.3663066 25.9606176,50.0622237 C17.9967847,39.3271438 5.45754583,42.7329169 1.3069805,49.1021548 C-2.84358482,55.4687909 3.92039478,57.2276164 7.30109718,53.8114361 C10.6817996,50.3952558 16.1300603,50.0153911 19.9716505,55.9163027 C23.8132407,61.8172143 19.4360937,75.7577277 24.5625053,85.4859061 C29.5576026,94.9669122 44.3523596,96.3016422 54.5897341,91.660008 C56.6572924,90.7233554 55.5346829,87.8795739 52.7822299,87.9029902 L52.7822299,87.9029902 Z" id="路径备份-5" fill="url(#linearGradient-14)" fill-rule="nonzero"></path>
                </g>
                <g id="编组-5" transform="translate(164.325168, 52.254603)" stroke="#CBDDFF" stroke-linecap="round" stroke-width="0.4536">
                    <path d="M0,2.96030864 C0,2.96030864 2.03077503,1.4327454 5.78945412,0" id="路径"></path>
                    <path d="M0.0813949422,4.49183972 C0.0813949422,4.49183972 4.11907603,2.33789637 10,1.79675133" id="路径"></path>
                    <path d="M0.167108066,6.13223337 C0.167108066,6.13223337 2.43842728,5.17853484 5.19518173,6.09631027" id="路径"></path>
                </g>
            </g>
        </g>
    </g>
</svg>